<svg width="10" height="9" viewBox="0 0 10 9" fill="none" xmlns="http://www.w3.org/2000/svg">
<path d="M4.21048 8.95517C4.20908 8.95517 4.20745 8.95517 4.20605 8.95517C4.14822 8.954 4.09365 8.92928 4.05447 8.88684L0.0559763 4.53901C-0.0125853 4.46438 -0.0188818 4.35198 0.0410513 4.27013C0.100984 4.1885 0.210123 4.16052 0.302005 4.20343L3.96165 5.917C3.99244 5.93146 4.02882 5.92447 4.05237 5.89998L9.63477 0.0654827C9.71033 -0.013573 9.83393 -0.0222015 9.91975 0.0458936C10.0056 0.113989 10.0254 0.236187 9.96546 0.327836L4.41243 8.8346C4.40451 8.84696 4.39518 8.85815 4.38492 8.86865L4.36043 8.89314C4.32055 8.93278 4.26645 8.95517 4.21048 8.95517Z" fill="#00C6C1"/>
</svg>
