<svg width="12" height="12" viewBox="0 0 12 12" fill="none" xmlns="http://www.w3.org/2000/svg">
<path d="M11.9387 9.48771C11.8481 9.69943 11.7312 9.90224 11.5994 10.118C11.1764 10.7576 10.4984 11.2051 9.76873 11.3454C7.24513 11.8117 4.62343 10.9295 2.58446 8.91634C0.846385 7.20024 -0.0652973 5.06136 0.0036416 2.88052C0.01796 2.20055 0.36296 1.5139 0.908232 1.01221C1.40782 0.567879 1.90885 0.233945 2.36812 0.0531098C2.43833 0.0327236 2.52339 0.00992176 2.59309 0.00399356C2.85768 -0.0231043 3.10725 0.088784 3.23705 0.306632C3.8348 1.33465 4.16267 2.30764 4.24129 3.2908C4.25849 3.53416 4.16363 3.78862 3.96327 3.99869L3.16281 4.83793C2.90187 5.10781 2.83543 5.49498 2.99994 5.76419C3.34194 6.32824 3.74283 6.85864 4.21945 7.31426C4.8465 7.91843 5.55221 8.41874 6.32486 8.80573C6.5879 8.92876 6.95296 8.8514 7.21116 8.6087L7.9412 7.92633C8.15257 7.74209 8.41167 7.63483 8.65728 7.65096C9.65391 7.72945 10.6393 8.05316 11.6805 8.64337C11.9659 8.8055 12.0817 9.16123 11.9387 9.48771Z" fill="#00C6C1"/>
</svg>
