<svg width="28" height="24" viewBox="0 0 28 24" fill="none" xmlns="http://www.w3.org/2000/svg">
<path d="M27.9868 12.6171C28.0314 13.6842 27.651 14.7254 26.9289 15.5124C26.2068 16.2994 25.2021 16.7678 24.1351 16.8148C24.0727 16.8177 24.0104 16.8192 23.9482 16.8192C23.6647 16.819 23.3821 16.7883 23.1051 16.7277C22.2834 17.9964 21.2059 19.0797 19.9416 19.9082C18.6772 20.7367 17.2539 21.2921 15.7626 21.5391C15.5862 22.0573 15.2343 22.4975 14.7677 22.7838C14.3012 23.0701 13.7492 23.1843 13.2074 23.1068C12.6655 23.0293 12.1677 22.7649 11.8001 22.3593C11.4325 21.9537 11.2181 21.4324 11.1941 20.8856C11.1701 20.3387 11.3378 19.8006 11.6684 19.3644C11.9991 18.9281 12.4717 18.621 13.0047 18.4963C13.5377 18.3715 14.0975 18.4369 14.5874 18.6811C15.0773 18.9253 15.4664 19.333 15.6876 19.8337C17.7872 19.4454 19.6839 18.3327 21.0472 16.6895C22.4105 15.0462 23.154 12.9767 23.148 10.8416C23.148 5.79732 19.0443 1.69355 14 1.69355C8.95575 1.69355 4.85199 5.79732 4.85199 10.8416C4.85171 12.4013 5.25034 13.9353 6.00998 15.2975C6.03573 15.3425 6.05505 15.3908 6.0674 15.4411C6.14077 15.6451 6.13293 15.8694 6.04549 16.0677C5.95805 16.2661 5.79771 16.4232 5.59766 16.5066C5.1078 16.7127 4.58168 16.8189 4.0502 16.8188C3.98765 16.8188 3.92497 16.8173 3.86216 16.8144C2.79561 16.7668 1.79149 16.2981 1.06997 15.5112C0.348452 14.7243 -0.0315729 13.6834 0.0132228 12.6167C0.0312309 12.1913 0.0211825 11.8118 0.0113599 11.4448C0.00221469 11.0993 -0.00732563 10.7419 0.00836796 10.3691C0.0552047 9.32756 0.503221 8.34457 1.25858 7.62599C2.01394 6.90741 3.01805 6.50898 4.06059 6.51414C5.73472 2.68377 9.5595 0 14 0C18.4405 0 22.2653 2.68377 23.9395 6.5142C24.9821 6.50825 25.9865 6.90634 26.742 7.62494C27.4975 8.34354 27.9454 9.3268 27.9916 10.3684C28.0073 10.7419 27.9978 11.0992 27.9886 11.4447C27.9789 11.8117 27.9688 12.1914 27.9868 12.6171ZM21.1019 10.8416C21.1015 11.9296 20.8512 13.003 20.3703 13.979C19.8895 14.9549 19.1908 15.8074 18.3284 16.4707C17.4659 17.134 16.4626 17.5903 15.3959 17.8045C14.3292 18.0187 13.2275 17.985 12.1758 17.7061L9.30124 19.3662C9.15619 19.4499 8.98957 19.4888 8.82244 19.4779C8.65531 19.4669 8.49517 19.4067 8.36229 19.3047C8.22941 19.2027 8.12975 19.0637 8.07592 18.9051C8.02209 18.7465 8.0165 18.5754 8.05986 18.4137L8.79453 15.673C7.57788 14.358 6.90093 12.6331 6.89837 10.8416C6.89837 6.92449 10.084 3.73801 14 3.73801C17.916 3.73801 21.1019 6.92449 21.1019 10.8416ZM12.0256 10.8416C12.0256 10.617 11.9364 10.4016 11.7776 10.2428C11.6188 10.084 11.4034 9.99479 11.1788 9.99479H11.1774C11.01 9.9951 10.8464 10.045 10.7074 10.1383C10.5684 10.2315 10.4601 10.3639 10.3962 10.5186C10.3324 10.6734 10.3158 10.8436 10.3487 11.0077C10.3815 11.1719 10.4623 11.3226 10.5808 11.4409C10.6993 11.5591 10.8502 11.6396 11.0144 11.6722C11.1786 11.7047 11.3488 11.6879 11.5034 11.6237C11.658 11.5596 11.7902 11.4511 11.8832 11.3118C11.9761 11.1726 12.0258 11.009 12.0258 10.8416H12.0256ZM14.8469 10.8416C14.8469 10.8138 14.8454 10.7861 14.8424 10.7586C14.8398 10.7309 14.8356 10.7034 14.8301 10.6762C14.825 10.649 14.8182 10.6223 14.8097 10.596C14.8018 10.5695 14.7922 10.5435 14.7821 10.5175C14.7719 10.4916 14.7595 10.4673 14.7465 10.443C14.7336 10.4186 14.7195 10.3949 14.7042 10.3719C14.6887 10.3487 14.6721 10.3262 14.6544 10.3047C14.637 10.2831 14.6184 10.2626 14.5986 10.2432C14.5794 10.2234 14.5585 10.2048 14.5371 10.1867C14.5156 10.1698 14.493 10.1529 14.4698 10.1376C14.4469 10.1223 14.4232 10.1082 14.3988 10.0953C14.3744 10.0823 14.3491 10.0704 14.3236 10.0597C14.2982 10.0491 14.2722 10.0398 14.2458 10.032C14.193 10.0151 14.1385 10.0041 14.0832 9.99931C14.0003 9.99132 13.9166 9.99531 13.8348 10.0112C13.8076 10.0167 13.7807 10.0237 13.7542 10.032C13.7277 10.0398 13.7017 10.049 13.6762 10.0597C13.6508 10.0704 13.6254 10.0823 13.6012 10.0953C13.5769 10.1083 13.5532 10.1224 13.53 10.1376C13.5068 10.1529 13.4843 10.1698 13.4634 10.1867C13.4414 10.2048 13.4211 10.2234 13.4013 10.2432C13.3815 10.2626 13.3628 10.2831 13.3454 10.3047C13.3279 10.3263 13.3115 10.3487 13.2963 10.3719C13.2808 10.3948 13.2665 10.4186 13.2534 10.443C13.2404 10.4672 13.2287 10.4921 13.2184 10.5175C13.2077 10.5432 13.1982 10.5694 13.1901 10.596C13.1823 10.622 13.1755 10.6491 13.1699 10.6762C13.1643 10.7034 13.1601 10.7309 13.1574 10.7586C13.1546 10.7862 13.1535 10.8139 13.1535 10.8416C13.1535 10.8692 13.1546 10.8975 13.1574 10.9251C13.1602 10.9526 13.1643 10.9799 13.1699 11.007C13.1755 11.0341 13.1823 11.0612 13.1901 11.0877C13.1982 11.1141 13.2077 11.1401 13.2184 11.1656C13.2287 11.1912 13.2404 11.2163 13.2534 11.2407C13.2664 11.265 13.2811 11.2887 13.2963 11.3118C13.3115 11.3348 13.3279 11.3571 13.3454 11.3784C13.363 11.4 13.3816 11.4208 13.4013 11.4405C13.4211 11.4597 13.4414 11.4789 13.4634 11.4964C13.4847 11.514 13.5069 11.5304 13.53 11.5455C13.5532 11.5608 13.5768 11.5754 13.6012 11.5884C13.6502 11.614 13.7014 11.6351 13.7542 11.6516C13.7806 11.6596 13.8077 11.6663 13.8348 11.672C13.8892 11.6831 13.9447 11.6886 14.0002 11.6883C14.2245 11.6877 14.4396 11.5987 14.5986 11.4405C14.6376 11.4009 14.673 11.3578 14.7042 11.3118C14.7194 11.2887 14.7335 11.265 14.7465 11.2407C14.7595 11.2164 14.7714 11.191 14.7821 11.1656C14.7928 11.1402 14.8018 11.1137 14.8097 11.0877C14.8181 11.0612 14.8249 11.0343 14.8301 11.007C14.8356 10.9799 14.8397 10.9526 14.8424 10.9251C14.8453 10.8973 14.8468 10.8694 14.8468 10.8415L14.8469 10.8416ZM17.6695 10.8416C17.6695 10.617 17.5803 10.4016 17.4215 10.2428C17.2627 10.084 17.0473 9.99479 16.8228 9.99479H16.8211C16.6537 9.99511 16.4902 10.0451 16.3511 10.1383C16.2121 10.2315 16.1038 10.3639 16.04 10.5187C15.9761 10.6734 15.9596 10.8436 15.9925 11.0078C16.0253 11.1719 16.1061 11.3226 16.2246 11.4409C16.3431 11.5592 16.4939 11.6396 16.6582 11.6722C16.8224 11.7047 16.9926 11.6879 17.1472 11.6237C17.3018 11.5596 17.434 11.4511 17.5269 11.3118C17.6199 11.1726 17.6695 11.009 17.6695 10.8416Z" fill="#00C6C1"/>
</svg>
