<svg width="28" height="27" viewBox="0 0 28 27" fill="none" xmlns="http://www.w3.org/2000/svg">
<path d="M24.4968 1.7529V0H11.6637V1.76182H8.10547V8.4137C10.8633 9.45446 12.8303 12.1209 12.8303 15.2386C12.8303 16.8855 11.743 19.5858 9.50629 23.4936C9.19397 24.0391 8.88094 24.5692 8.57895 25.0695H17.264V19.703H19.0139V25.0695H27.9965V1.76477L24.4968 1.7529ZM17.0888 17.8819H13.764V16.132H17.0888V17.8819ZM17.0888 14.382H13.764V12.6321H17.0888V14.382ZM17.0888 10.9625H13.764V9.21269H17.0888V10.9625ZM17.0888 7.46252H13.764V5.71268H17.0888V7.46252ZM22.5139 17.8819H19.189V16.132H22.5139V17.8819ZM22.5139 14.382H19.189V12.6321H22.5139V14.382ZM22.5139 10.9625H19.189V9.21269H22.5139V10.9625ZM22.5139 7.46252H19.189V5.71268H22.5139V7.46252Z" fill="#00C6C1"/>
<path d="M5.53522 13.4883C4.5702 13.4883 3.78516 14.2733 3.78516 15.2383C3.78516 16.2034 4.5702 16.9884 5.53522 16.9884C6.50024 16.9884 7.28528 16.2034 7.28528 15.2383C7.28528 14.2733 6.50024 13.4883 5.53522 13.4883Z" fill="#00C6C1"/>
<path d="M5.54194 9.69678C2.4861 9.69678 0 12.1829 0 15.2387C0 17.6072 3.51549 23.5158 5.54194 26.638C7.56834 23.5153 11.0839 17.6058 11.0839 15.2387C11.0839 12.1828 8.59783 9.69678 5.54194 9.69678ZM5.54199 18.7386C3.61212 18.7386 2.04209 17.1686 2.04209 15.2387C2.04209 13.3088 3.61212 11.7388 5.54199 11.7388C7.47187 11.7388 9.0419 13.3088 9.0419 15.2387C9.0419 17.1686 7.47187 18.7386 5.54199 18.7386Z" fill="#00C6C1"/>
</svg>
