<svg width="32" height="32" viewBox="0 0 32 32" fill="none" xmlns="http://www.w3.org/2000/svg">
<path fill-rule="evenodd" clip-rule="evenodd" d="M16.1836 6.23832L14.2362 2.69415L12.2888 6.23832H16.1836ZM10.3199 9.76587C13.2467 9.76587 15.6194 12.3255 15.6194 15.4828C15.6194 18.6402 13.2467 21.1998 10.3199 21.1998C7.39304 21.1998 5.02032 18.6402 5.02032 15.4828C5.02032 12.3255 7.39298 9.76587 10.3199 9.76587ZM0.658318 32L19.9812 31.9999C20.3943 31.9999 20.7029 31.6005 20.6283 31.1621C19.7768 26.1589 15.8729 22.3074 11.076 21.9384L12.8809 28.0606L10.3197 31.1802L7.75853 28.0606L9.56349 21.9384C4.76653 22.3074 0.862574 26.1589 0.0111456 31.1621C-0.0633864 31.6006 0.245201 32 0.658318 32ZM21.4203 0C21.9435 0 22.3954 0.329557 22.6072 0.80672C24.4056 0.400876 25.1636 0.710422 25.8821 1.00414C26.4637 1.24194 27.0133 1.46647 28.4402 1.04445C28.6696 0.962699 28.9288 1.06084 29.0567 1.29446L31.9189 6.50365C31.9856 6.61776 32.0151 6.75784 31.9924 6.90133C31.7098 8.67459 30.272 9.97926 28.6045 9.97926C26.9493 9.97926 25.5189 8.69353 25.2224 6.93682C25.1886 6.7824 25.2162 6.61861 25.2991 6.48704L27.5497 2.39085C26.595 2.50667 26.0648 2.29008 25.5121 2.06406C24.9116 1.8186 24.2774 1.55972 22.6372 1.9579C22.5072 2.29888 22.2576 2.57316 21.9448 2.72013L21.9465 10.9112C23.4455 11.0844 24.7408 11.9923 25.5166 13.2946C25.5834 13.4067 25.5878 13.5395 25.5286 13.6565C25.4694 13.7734 25.3634 13.8413 25.24 13.8413H17.6053C17.4817 13.8413 17.3757 13.7734 17.3166 13.6565C17.2574 13.5395 17.2618 13.4067 17.3286 13.2946C18.1043 11.9925 19.3993 11.0847 20.898 10.9112L20.8964 2.72048C20.5833 2.57359 20.3335 2.29917 20.2035 1.95804C18.5632 1.55993 17.929 1.81874 17.3286 2.0642C16.7759 2.29015 16.2456 2.50681 15.2909 2.39099L17.5507 6.50372C17.6174 6.61783 17.6469 6.75791 17.6242 6.9014C17.3415 8.67466 15.9038 9.97933 14.2362 9.97933C12.5811 9.97933 11.1506 8.6936 10.8541 6.93689C10.8203 6.78247 10.848 6.61868 10.9309 6.48712L13.78 1.30184C13.9029 1.06886 14.1614 0.960641 14.3988 1.04388C15.8269 1.46669 16.3768 1.24201 16.9586 1.00414C17.6772 0.710351 18.4351 0.400805 20.2335 0.80672C20.4453 0.329557 20.8971 0 21.4203 0ZM30.5518 6.23832L28.6044 2.69415L26.657 6.23832H30.5518Z" fill="#00C6C1"/>
</svg>
