<svg width="32" height="28" viewBox="0 0 32 28" fill="none" xmlns="http://www.w3.org/2000/svg">
<path d="M27.381 14.6548H24.9062C25.1585 15.3454 25.2963 16.0907 25.2963 16.8675V26.2206C25.2963 26.5444 25.2399 26.8553 25.1374 27.1444H29.2287C30.757 27.1444 32.0003 25.9011 32.0003 24.3728V19.2741C32.0003 16.727 29.9281 14.6548 27.381 14.6548Z" fill="#00C6C1"/>
<path d="M6.70401 16.8675C6.70401 16.0906 6.84182 15.3454 7.09407 14.6548H4.61934C2.07223 14.6548 0 16.727 0 19.2741V24.3729C0 25.9011 1.2433 27.1445 2.7716 27.1445H6.86294C6.76038 26.8552 6.70401 26.5444 6.70401 26.2206V16.8675Z" fill="#00C6C1"/>
<path d="M18.8297 12.249H13.1721C10.625 12.249 8.55273 14.3213 8.55273 16.8684V26.2214C8.55273 26.7316 8.96636 27.1453 9.4766 27.1453H22.5251C23.0354 27.1453 23.449 26.7317 23.449 26.2214V16.8684C23.449 14.3213 21.3768 12.249 18.8297 12.249Z" fill="#00C6C1"/>
<path d="M16.0006 0C12.9374 0 10.4453 2.49211 10.4453 5.55539C10.4453 7.63319 11.5921 9.44786 13.2857 10.4006C14.089 10.8525 15.0152 11.1107 16.0006 11.1107C16.9861 11.1107 17.9123 10.8525 18.7156 10.4006C20.4092 9.44786 21.556 7.63313 21.556 5.55539C21.556 2.49217 19.0639 0 16.0006 0Z" fill="#00C6C1"/>
<path d="M6.2445 5.17822C3.95358 5.17822 2.08984 7.04196 2.08984 9.33288C2.08984 11.6238 3.95358 13.4875 6.2445 13.4875C6.82562 13.4875 7.37899 13.3672 7.88167 13.1508C8.75079 12.7766 9.46741 12.1142 9.91084 11.2845C10.2221 10.7022 10.3992 10.0379 10.3992 9.33288C10.3992 7.04202 8.53542 5.17822 6.2445 5.17822Z" fill="#00C6C1"/>
<path d="M25.7562 5.17822C23.4653 5.17822 21.6016 7.04196 21.6016 9.33288C21.6016 10.038 21.7786 10.7023 22.0899 11.2845C22.5333 12.1143 23.2499 12.7767 24.119 13.1508C24.6217 13.3672 25.1751 13.4875 25.7562 13.4875C28.0471 13.4875 29.9109 11.6238 29.9109 9.33288C29.9109 7.04196 28.0471 5.17822 25.7562 5.17822Z" fill="#00C6C1"/>
</svg>
