<svg width="8" height="10" viewBox="0 0 8 10" fill="none" xmlns="http://www.w3.org/2000/svg">
<path d="M3.62163 0C1.62465 0 0 1.62465 0 3.62161C0 6.09989 3.241 9.73816 3.37899 9.89183C3.5086 10.0362 3.73489 10.0359 3.86426 9.89183C4.00225 9.73816 7.24325 6.09989 7.24325 3.62161C7.24321 1.62465 5.61858 0 3.62163 0ZM3.62163 5.44374C2.6169 5.44374 1.79951 4.62633 1.79951 3.62161C1.79951 2.61688 2.61692 1.79949 3.62163 1.79949C4.62633 1.79949 5.44372 2.6169 5.44372 3.62163C5.44372 4.62635 4.62633 5.44374 3.62163 5.44374Z" fill="#00C6C1"/>
</svg>
