<svg width="6" height="6" viewBox="0 0 6 6" fill="none" xmlns="http://www.w3.org/2000/svg">
<path d="M1.81361 5.49724L0.406716 4.12303C0.376284 4.09345 0.352094 4.05807 0.335576 4.01898C0.319058 3.97989 0.310547 3.93788 0.310547 3.89545C0.310547 3.85301 0.319058 3.811 0.335576 3.77191C0.352094 3.73282 0.376284 3.69744 0.406716 3.66786L0.873267 3.21269C0.935832 3.15207 1.01953 3.11817 1.10665 3.11817C1.19376 3.11817 1.27746 3.15207 1.34003 3.21269L2.17754 4.03138L4.52644 0.460342C4.57491 0.388282 4.64949 0.337892 4.73443 0.319823C4.81937 0.301754 4.90801 0.317421 4.98161 0.363514L5.53692 0.712342C5.57319 0.734644 5.60461 0.764003 5.62933 0.798678C5.65404 0.833352 5.67153 0.872636 5.68077 0.914199C5.69002 0.955762 5.69082 0.998758 5.68313 1.04064C5.67545 1.08252 5.65943 1.12243 5.63603 1.158L2.85472 5.38779C2.79898 5.47058 2.72578 5.54015 2.64025 5.59159C2.55473 5.64304 2.45897 5.6751 2.35971 5.68554C2.26046 5.69597 2.16012 5.68452 2.06577 5.65199C1.97142 5.61945 1.88534 5.56663 1.81361 5.49724Z" fill="white"/>
</svg>
