<svg width="6" height="6" viewBox="0 0 6 6" fill="none" xmlns="http://www.w3.org/2000/svg">
<path d="M0.596984 5.38694C0.659006 5.44983 0.732906 5.49976 0.814392 5.53385C0.895878 5.56793 0.983324 5.58548 1.07165 5.58548C1.15998 5.58548 1.24742 5.56793 1.32891 5.53385C1.4104 5.49976 1.4843 5.44983 1.54632 5.38694L2.98365 3.94961L4.42098 5.38694C4.54687 5.51283 4.71762 5.58355 4.89565 5.58355C5.07369 5.58355 5.24443 5.51283 5.37032 5.38694C5.49621 5.26105 5.56693 5.09031 5.56693 4.91227C5.56693 4.73424 5.49621 4.56349 5.37032 4.4376L3.93299 3.00027L5.37032 1.56294C5.43265 1.5006 5.4821 1.4266 5.51583 1.34516C5.54957 1.26372 5.56693 1.17643 5.56693 1.08827C5.56693 1.00012 5.54957 0.912828 5.51583 0.831384C5.4821 0.749941 5.43265 0.675939 5.37032 0.613605C5.30798 0.551271 5.23398 0.501825 5.15254 0.46809C5.0711 0.434355 4.9838 0.416992 4.89565 0.416992C4.8075 0.416992 4.72021 0.434355 4.63876 0.46809C4.55732 0.501825 4.48332 0.551271 4.42098 0.613605L2.98365 2.05094L1.54632 0.613605C1.48398 0.551271 1.40998 0.501825 1.32854 0.46809C1.2471 0.434355 1.1598 0.416992 1.07165 0.416992C0.983498 0.416992 0.896207 0.434355 0.814763 0.46809C0.73332 0.501825 0.659318 0.551271 0.596984 0.613605C0.53465 0.675939 0.485204 0.749941 0.451469 0.831384C0.417734 0.912828 0.400371 1.00012 0.400371 1.08827C0.400371 1.17643 0.417734 1.26372 0.451469 1.34516C0.485204 1.4266 0.53465 1.5006 0.596984 1.56294L2.03432 3.00027L0.596984 4.4376C0.534096 4.49963 0.484159 4.57353 0.450074 4.65501C0.41599 4.7365 0.398438 4.82394 0.398438 4.91227C0.398438 5.0006 0.41599 5.08805 0.450074 5.16953C0.484159 5.25102 0.534096 5.32492 0.596984 5.38694Z" fill="#FFF7ED"/>
</svg>
