<svg width="16" height="12" viewBox="0 0 16 12" fill="none" xmlns="http://www.w3.org/2000/svg">
<path d="M0.72728 6.53658L13.5172 6.53658L9.66773 10.3861C9.59827 10.4532 9.54286 10.5334 9.50475 10.6221C9.46663 10.7109 9.44657 10.8063 9.44573 10.9029C9.44489 10.9994 9.46329 11.0952 9.49986 11.1846C9.53643 11.274 9.59043 11.3552 9.65872 11.4235C9.727 11.4917 9.8082 11.5457 9.89758 11.5823C9.98696 11.6189 10.0827 11.6373 10.1793 11.6364C10.2759 11.6356 10.3713 11.6155 10.46 11.5774C10.5488 11.5393 10.629 11.4839 10.6961 11.4144L15.7871 6.32349C15.9234 6.1871 16 6.00215 16 5.8093C16 5.61645 15.9234 5.4315 15.7871 5.29511L10.6961 0.204154C10.5589 0.0716729 10.3752 -0.00163223 10.1845 2.42871e-05C9.99385 0.00168176 9.81143 0.0781693 9.67659 0.213013C9.54175 0.347857 9.46526 0.530267 9.4636 0.720958C9.46195 0.911648 9.53525 1.09536 9.66773 1.23253L13.5172 5.08202L0.72728 5.08202C0.534394 5.08202 0.349407 5.15864 0.213015 5.29503C0.0766245 5.43143 5.26291e-07 5.61641 5.09428e-07 5.8093C4.92565e-07 6.00218 0.0766244 6.18717 0.213015 6.32356C0.349407 6.45995 0.534394 6.53658 0.72728 6.53658Z" fill="white"/>
</svg>
