<svg width="20" height="20" viewBox="0 0 20 20" fill="none" xmlns="http://www.w3.org/2000/svg">
<path d="M19.375 10C19.375 4.47656 15.0383 0 9.6875 0C4.33667 0 0 4.47656 0 10C0 15.5234 4.33667 20 9.6875 20C9.74426 20 9.80103 20 9.85779 19.9961V12.2148H7.77649V9.71094H9.85779V7.86719C9.85779 5.73047 11.1217 4.56641 12.9684 4.56641C13.8539 4.56641 14.6145 4.63281 14.834 4.66406V6.89844H13.5625C12.5597 6.89844 12.3629 7.39062 12.3629 8.11328V9.70703H14.7659L14.4518 12.2109H12.3629V19.6133C16.412 18.4141 19.375 14.5664 19.375 10Z" fill="#007672"/>
</svg>
