<svg width="11" height="13" viewBox="0 0 11 13" fill="none" xmlns="http://www.w3.org/2000/svg">
<path d="M4.93034 6.22686C5.72446 6.22686 6.41211 5.94564 6.97396 5.3908C7.53582 4.83605 7.82063 4.15728 7.82063 3.3731C7.82063 2.5892 7.53582 1.91034 6.97387 1.35541C6.41192 0.800748 5.72437 0.519531 4.93034 0.519531C4.13612 0.519531 3.44866 0.800748 2.8868 1.3555C2.32495 1.91025 2.04004 2.58911 2.04004 3.3731C2.04004 4.15728 2.32495 4.83614 2.8869 5.39089C3.44884 5.94555 4.1364 6.22686 4.93034 6.22686Z" fill="#00C6C1"/>
<path d="M9.98732 9.63009C9.97112 9.39922 9.93834 9.14738 9.89009 8.88144C9.84139 8.61351 9.77867 8.36023 9.7036 8.12872C9.62606 7.88945 9.52059 7.65316 9.39022 7.42672C9.2549 7.1917 9.09597 6.98704 8.91763 6.81864C8.73113 6.64246 8.5028 6.50081 8.23877 6.39749C7.97565 6.29471 7.68405 6.24264 7.37214 6.24264C7.24964 6.24264 7.13117 6.29227 6.90238 6.43934C6.76158 6.53001 6.59687 6.63487 6.41304 6.75084C6.25584 6.84973 6.04289 6.94239 5.77986 7.02627C5.52324 7.10826 5.26269 7.14984 5.00552 7.14984C4.74835 7.14984 4.48788 7.10826 4.23099 7.02627C3.96823 6.94248 3.75528 6.84982 3.59827 6.75093C3.41617 6.63604 3.25138 6.53118 3.10847 6.43925C2.87995 6.29218 2.76139 6.24255 2.6389 6.24255C2.32689 6.24255 2.03538 6.29471 1.77236 6.39758C1.5085 6.50072 1.28008 6.64237 1.09341 6.81873C0.915154 6.98722 0.756128 7.19179 0.620997 7.42672C0.490719 7.65316 0.385251 7.88936 0.307615 8.12882C0.232634 8.36032 0.169921 8.61351 0.121215 8.88144C0.072967 9.14702 0.0401913 9.39895 0.0239866 9.63036C0.00805658 9.85707 0 10.0924 0 10.33C0 10.9485 0.199126 11.4492 0.591792 11.8184C0.979607 12.1828 1.49276 12.3677 2.11677 12.3677H7.89481C8.51883 12.3677 9.03179 12.1829 9.4197 11.8184C9.81246 11.4495 10.0116 10.9487 10.0116 10.3299C10.0115 10.0912 10.0033 9.85571 9.98732 9.63009Z" fill="#00C6C1"/>
</svg>
