<svg width="9" height="13" viewBox="0 0 9 13" fill="none" xmlns="http://www.w3.org/2000/svg">
<path d="M8.74999 4.96264H7.99999V3.97527C7.99999 2.06976 6.42994 0.519531 4.5 0.519531C2.57006 0.519531 1.00001 2.06976 1.00001 3.97527V4.96264H0.250008C0.11182 4.96264 0 5.07304 0 5.20948V11.3805C0 11.925 0.448477 12.3678 1.00001 12.3678H8.00002C8.55152 12.3678 9 11.925 9 11.3804V5.20948C9 5.07304 8.88818 4.96264 8.74999 4.96264ZM5.24855 10.119C5.25635 10.1887 5.23366 10.2586 5.1863 10.3109C5.13893 10.3632 5.07105 10.3931 5.00002 10.3931H4.00001C3.92897 10.3931 3.86109 10.3632 3.81373 10.3109C3.76636 10.2586 3.74365 10.1887 3.75148 10.119L3.90919 8.71875C3.65309 8.53482 3.50002 8.24387 3.50002 7.9247C3.50002 7.38017 3.94849 6.93734 4.50002 6.93734C5.05155 6.93734 5.50003 7.38015 5.50003 7.9247C5.50003 8.24387 5.34696 8.53482 5.09086 8.71875L5.24855 10.119ZM6.49999 4.96264H2.50001V3.97527C2.50001 2.88643 3.39722 2.00057 4.5 2.00057C5.60278 2.00057 6.49999 2.88643 6.49999 3.97527V4.96264Z" fill="#00C6C1"/>
</svg>
