<svg width="12" height="12" viewBox="0 0 12 12" fill="none" xmlns="http://www.w3.org/2000/svg">
<path d="M11.9387 10.0072C11.8481 10.219 11.7312 10.4218 11.5994 10.6376C11.1764 11.2771 10.4984 11.7246 9.76873 11.8649C7.24513 12.3312 4.62343 11.4491 2.58446 9.43587C0.846385 7.71977 -0.0652973 5.58089 0.0036416 3.40005C0.01796 2.72008 0.36296 2.03343 0.908232 1.53174C1.40782 1.08741 1.90885 0.753476 2.36812 0.572641C2.43833 0.552255 2.52339 0.529453 2.59309 0.523525C2.85768 0.496427 3.10725 0.608315 3.23705 0.826164C3.8348 1.85418 4.16267 2.82717 4.24129 3.81033C4.25849 4.05369 4.16363 4.30815 3.96327 4.51823L3.16281 5.35746C2.90187 5.62734 2.83543 6.01451 2.99994 6.28372C3.34194 6.84777 3.74283 7.37817 4.21945 7.83379C4.8465 8.43796 5.55221 8.93827 6.32486 9.32526C6.5879 9.44829 6.95296 9.37093 7.21116 9.12823L7.9412 8.44587C8.15257 8.26162 8.41167 8.15436 8.65728 8.17049C9.65391 8.24899 10.6393 8.57269 11.6805 9.1629C11.9659 9.32504 12.0817 9.68076 11.9387 10.0072Z" fill="#00C6C1"/>
</svg>
