<svg width="20" height="20" viewBox="0 0 20 20" fill="none" xmlns="http://www.w3.org/2000/svg">
<path d="M8.80371 8.08423L11.9234 10L8.80371 11.9171V8.08423Z" fill="#979797"/>
<path d="M10 0C8.02219 0 6.08879 0.58649 4.4443 1.6853C2.79981 2.78412 1.51809 4.3459 0.761209 6.17316C0.00433282 8.00043 -0.1937 10.0111 0.192152 11.9509C0.578004 13.8907 1.53041 15.6725 2.92894 17.0711C4.32746 18.4696 6.10929 19.422 8.0491 19.8079C9.98891 20.1937 11.9996 19.9957 13.8268 19.2388C15.6541 18.4819 17.2159 17.2002 18.3147 15.5557C19.4135 13.9112 20 11.9778 20 10C20 7.34783 18.9464 4.8043 17.0711 2.92893C15.1957 1.05357 12.6522 0 10 0ZM14.7658 12.4066C14.5658 13.0211 13.9039 13.3947 13.2947 13.4803C11.1044 13.7132 8.89558 13.7132 6.70527 13.4803C6.09606 13.3947 5.43421 13.0211 5.23421 12.4066C4.92238 10.8178 4.92238 9.18353 5.23421 7.59474C5.43421 6.97368 6.09606 6.60658 6.71053 6.52105C8.90085 6.28816 11.1097 6.28816 13.3 6.52105C13.9092 6.60658 14.5711 6.97895 14.7711 7.59474C15.0811 9.18387 15.0794 10.8181 14.7658 12.4066Z" fill="#979797"/>
</svg>
